HIERARCHY
ROOT Hips
{
	OFFSET 0.053599 88.859886 3.107447
	CHANNELS 6 Xposition Yposition Zposition Zrotation Yrotation Xrotation 
	JOINT Spine
	{
		OFFSET -0.000000 8.814246 -2.080107
		CHANNELS 3 Zrotation Yrotation Xrotation
		JOINT Spine1
		{
			OFFSET 0.000000 8.844141 0.000000
			CHANNELS 3 Zrotation Yrotation Xrotation
			JOINT Spine2
			{
				OFFSET -0.000000 11.682268 0.000000
				CHANNELS 3 Zrotation Yrotation Xrotation
				JOINT Spine3
				{
					OFFSET 0.000000 11.746700 0.000000
					CHANNELS 3 Zrotation Yrotation Xrotation
					JOINT Neck
					{
						OFFSET -0.000000 17.658264 -0.000000
						CHANNELS 3 Zrotation Yrotation Xrotation
						JOINT Neck1
						{
							OFFSET -0.000000 5.101515 -0.000000
							CHANNELS 3 Zrotation Yrotation Xrotation
							JOINT Head
							{
								OFFSET 0.000000 5.101515 0.000000
								CHANNELS 3 Zrotation Yrotation Xrotation
								JOINT HeadEnd
								{
									OFFSET 0.000000 11.655085 0.000000
									CHANNELS 3 Zrotation Yrotation Xrotation
									End Site
									{
										OFFSET 0.000000 0.000000 0.000000
									}
								}
							}
						}
					}
					JOINT RightShoulder
					{
						OFFSET -2.625389 11.175210 0.000000
						CHANNELS 3 Zrotation Yrotation Xrotation
						JOINT RightArm
						{
							OFFSET -0.000000 10.434715 -0.000000
							CHANNELS 3 Zrotation Yrotation Xrotation
							JOINT RightForeArm
							{
								OFFSET -0.000000 29.628420 0.000000
								CHANNELS 3 Zrotation Yrotation Xrotation
								JOINT RightHand
								{
									OFFSET -0.000000 22.857611 0.000000
									CHANNELS 3 Zrotation Yrotation Xrotation
									JOINT RightHandThumb1
									{
										OFFSET -2.867323 3.959563 2.944291
										CHANNELS 3 Zrotation Yrotation Xrotation
										JOINT RightHandThumb2
										{
											OFFSET 0.000000 3.350399 0.000000
											CHANNELS 3 Zrotation Yrotation Xrotation
											JOINT RightHandThumb3
											{
												OFFSET 0.000000 3.756509 -0.000000
												CHANNELS 3 Zrotation Yrotation Xrotation
												JOINT RightHandThumb4
												{
													OFFSET 0.000000 3.147345 0.000000
													CHANNELS 3 Zrotation Yrotation Xrotation
													End Site
													{
														OFFSET 0.000000 0.000000 0.000000
													}
												}
											}
										}
									}
									JOINT RightHandIndex1
									{
										OFFSET -0.086752 10.030893 2.345280
										CHANNELS 3 Zrotation Yrotation Xrotation
										JOINT RightHandIndex2
										{
											OFFSET -0.000000 4.061090 0.000000
											CHANNELS 3 Zrotation Yrotation Xrotation
											JOINT RightHandIndex3
											{
												OFFSET -0.000000 3.248873 0.000000
												CHANNELS 3 Zrotation Yrotation Xrotation
												JOINT RightHandIndex4
												{
													OFFSET 0.000000 2.639709 -0.000000
													CHANNELS 3 Zrotation Yrotation Xrotation
													End Site
													{
														OFFSET 0.000000 0.000000 0.000000
													}
												}
											}
										}
									}
									JOINT RightHandMiddle1
									{
										OFFSET 0.104102 9.502952 0.006768
										CHANNELS 3 Zrotation Yrotation Xrotation
										JOINT RightHandMiddle2
										{
											OFFSET 0.000000 4.568727 0.000000
											CHANNELS 3 Zrotation Yrotation Xrotation
											JOINT RightHandMiddle3
											{
												OFFSET 0.000000 3.654981 -0.000000
												CHANNELS 3 Zrotation Yrotation Xrotation
												JOINT RightHandMiddle4
												{
													OFFSET -0.000000 2.741236 -0.000000
													CHANNELS 3 Zrotation Yrotation Xrotation
													End Site
													{
														OFFSET 0.000000 0.000000 0.000000
													}
												}
											}
										}
									}
									JOINT RightHandRing1
									{
										OFFSET 0.086752 8.921708 -2.267442
										CHANNELS 3 Zrotation Yrotation Xrotation
										JOINT RightHandRing2
										{
											OFFSET -0.000000 4.061090 0.000000
											CHANNELS 3 Zrotation Yrotation Xrotation
											JOINT RightHandRing3
											{
												OFFSET 0.000000 3.654981 -0.000000
												CHANNELS 3 Zrotation Yrotation Xrotation
												JOINT RightHandRing4
												{
													OFFSET 0.000000 2.741236 -0.000000
													CHANNELS 3 Zrotation Yrotation Xrotation
													End Site
													{
														OFFSET 0.000000 0.000000 0.000000
													}
												}
											}
										}
									}
									JOINT RightHandPinky1
									{
										OFFSET -0.173504 7.976997 -4.467199
										CHANNELS 3 Zrotation Yrotation Xrotation
										JOINT RightHandPinky2
										{
											OFFSET 0.000000 3.350399 -0.000000
											CHANNELS 3 Zrotation Yrotation Xrotation
											JOINT RightHandPinky3
											{
												OFFSET -0.000000 2.842763 0.000000
												CHANNELS 3 Zrotation Yrotation Xrotation
												JOINT RightHandPinky4
												{
													OFFSET -0.000000 2.639709 0.000000
													CHANNELS 3 Zrotation Yrotation Xrotation
													End Site
													{
														OFFSET 0.000000 0.000000 0.000000
													}
												}
											}
										}
									}
									JOINT RightForeArmEnd
									{
										OFFSET 0.000000 0.000000 0.000000
										CHANNELS 3 Zrotation Yrotation Xrotation
										End Site
										{
											OFFSET 0.000000 0.000000 0.000000
										}
									}
								}
								JOINT RightArmEnd
								{
									OFFSET 0.000000 0.000000 0.000000
									CHANNELS 3 Zrotation Yrotation Xrotation
									End Site
									{
										OFFSET 0.000000 0.000000 0.000000
									}
								}
							}
						}
					}
					JOINT LeftShoulder
					{
						OFFSET 2.625389 11.175210 0.000000
						CHANNELS 3 Zrotation Yrotation Xrotation
						JOINT LeftArm
						{
							OFFSET 0.000000 10.813635 -0.000000
							CHANNELS 3 Zrotation Yrotation Xrotation
							JOINT LeftForeArm
							{
								OFFSET 0.000000 28.724781 0.000000
								CHANNELS 3 Zrotation Yrotation Xrotation
								JOINT LeftHand
								{
									OFFSET 0.644384 25.716167 -0.328871
									CHANNELS 3 Zrotation Yrotation Xrotation
									JOINT LeftHandThumb1
									{
										OFFSET 2.867323 3.959563 2.944291
										CHANNELS 3 Zrotation Yrotation Xrotation
										JOINT LeftHandThumb2
										{
											OFFSET 0.000000 3.350399 0.000000
											CHANNELS 3 Zrotation Yrotation Xrotation
											JOINT LeftHandThumb3
											{
												OFFSET -0.000000 3.756509 0.000000
												CHANNELS 3 Zrotation Yrotation Xrotation
												JOINT LeftHandThumb4
												{
													OFFSET -0.000000 3.100000 0.000000
													CHANNELS 3 Zrotation Yrotation Xrotation
													End Site
													{
														OFFSET 0.000000 0.000000 0.000000
													}
												}
											}
										}
									}
									JOINT LeftHandIndex1
									{
										OFFSET 0.086752 10.030893 2.345280
										CHANNELS 3 Zrotation Yrotation Xrotation
										JOINT LeftHandIndex2
										{
											OFFSET -0.000000 4.061090 -0.000000
											CHANNELS 3 Zrotation Yrotation Xrotation
											JOINT LeftHandIndex3
											{
												OFFSET 0.000000 3.248873 -0.000000
												CHANNELS 3 Zrotation Yrotation Xrotation
												JOINT LeftHandIndex4
												{
													OFFSET 0.000000 2.639709 -0.000000
													CHANNELS 3 Zrotation Yrotation Xrotation
													End Site
													{
														OFFSET 0.000000 0.000000 0.000000
													}
												}
											}
										}
									}
									JOINT LeftHandMiddle1
									{
										OFFSET -0.104102 9.502952 0.006768
										CHANNELS 3 Zrotation Yrotation Xrotation
										JOINT LeftHandMiddle2
										{
											OFFSET -0.000000 4.568727 -0.000000
											CHANNELS 3 Zrotation Yrotation Xrotation
											JOINT LeftHandMiddle3
											{
												OFFSET 0.000000 3.654981 0.000000
												CHANNELS 3 Zrotation Yrotation Xrotation
												JOINT LeftHandMiddle4
												{
													OFFSET 0.000000 2.741236 -0.000000
													CHANNELS 3 Zrotation Yrotation Xrotation
													End Site
													{
														OFFSET 0.000000 0.000000 0.000000
													}
												}
											}
										}
									}
									JOINT LeftHandRing1
									{
										OFFSET -0.086752 8.921708 -2.267442
										CHANNELS 3 Zrotation Yrotation Xrotation
										JOINT LeftHandRing2
										{
											OFFSET 0.000000 4.061090 0.000000
											CHANNELS 3 Zrotation Yrotation Xrotation
											JOINT LeftHandRing3
											{
												OFFSET 0.000000 3.654981 0.000000
												CHANNELS 3 Zrotation Yrotation Xrotation
												JOINT LeftHandRing4
												{
													OFFSET 0.000000 2.741236 0.000000
													CHANNELS 3 Zrotation Yrotation Xrotation
													End Site
													{
														OFFSET 0.000000 0.000000 0.000000
													}
												}
											}
										}
									}
									JOINT LeftHandPinky1
									{
										OFFSET 0.173504 7.976997 -4.467199
										CHANNELS 3 Zrotation Yrotation Xrotation
										JOINT LeftHandPinky2
										{
											OFFSET -0.000000 3.350399 -0.000000
											CHANNELS 3 Zrotation Yrotation Xrotation
											JOINT LeftHandPinky3
											{
												OFFSET 0.000000 2.842763 0.000000
												CHANNELS 3 Zrotation Yrotation Xrotation
												JOINT LeftHandPinky4
												{
													OFFSET -0.000000 2.639709 -0.000000
													CHANNELS 3 Zrotation Yrotation Xrotation
													End Site
													{
														OFFSET 0.000000 0.000000 0.000000
													}
												}
											}
										}
									}
									JOINT LeftForeArmEnd
									{
										OFFSET 0.000000 0.000000 0.000000
										CHANNELS 3 Zrotation Yrotation Xrotation
										End Site
										{
											OFFSET 0.000000 0.000000 0.000000
										}
									}
								}
								JOINT LeftArmEnd
								{
									OFFSET 0.000000 0.000000 0.000000
									CHANNELS 3 Zrotation Yrotation Xrotation
									End Site
									{
										OFFSET 0.000000 0.000000 0.000000
									}
								}
							}
						}
					}
				}
			}
		}
	}
	JOINT RightUpLeg
	{
		OFFSET -11.289943 0.000000 0.000000
		CHANNELS 3 Zrotation Yrotation Xrotation
		JOINT RightLeg
		{
			OFFSET 0.000000 -38.200325 0.000000
			CHANNELS 3 Zrotation Yrotation Xrotation
			JOINT RightFoot
			{
				OFFSET -0.000000 -39.900856 -0.000000
				CHANNELS 3 Zrotation Yrotation Xrotation
				JOINT RightToeBase
				{
					OFFSET 0.000000 0.000000 15.261641
					CHANNELS 3 Zrotation Yrotation Xrotation
					JOINT RightToeBaseEnd
					{
						OFFSET 0.000000 0.000000 7.370709
						CHANNELS 3 Zrotation Yrotation Xrotation
						End Site
						{
							OFFSET 0.000000 0.000000 0.000000
						}
					}
				}
				JOINT RightLegEnd
				{
					OFFSET 0.000000 0.000000 0.000000
					CHANNELS 3 Zrotation Yrotation Xrotation
					End Site
					{
						OFFSET 0.000000 0.000000 0.000000
					}
				}
			}
			JOINT RightUpLegEnd
			{
				OFFSET 0.000000 0.000000 0.000000
				CHANNELS 3 Zrotation Yrotation Xrotation
				End Site
				{
					OFFSET 0.000000 0.000000 0.000000
				}
			}
		}
	}
	JOINT LeftUpLeg
	{
		OFFSET 11.315661 -0.000000 0.000000
		CHANNELS 3 Zrotation Yrotation Xrotation
		JOINT LeftLeg
		{
			OFFSET -0.000000 -38.200325 -0.000000
			CHANNELS 3 Zrotation Yrotation Xrotation
			JOINT LeftFoot
			{
				OFFSET 0.000000 -39.900856 -0.000000
				CHANNELS 3 Zrotation Yrotation Xrotation
				JOINT LeftToeBase
				{
					OFFSET -0.000000 -0.000000 15.261641
					CHANNELS 3 Zrotation Yrotation Xrotation
					JOINT LeftToeBaseEnd
					{
						OFFSET 0.000000 -0.000000 7.539996
						CHANNELS 3 Zrotation Yrotation Xrotation
						End Site
						{
							OFFSET 0.000000 0.000000 0.000000
						}
					}
				}
				JOINT LeftLegEnd
				{
					OFFSET 0.000000 0.000000 0.000000
					CHANNELS 3 Zrotation Yrotation Xrotation
					End Site
					{
						OFFSET 0.000000 0.000000 0.000000
					}
				}
			}
			JOINT LeftUpLegEnd
			{
				OFFSET 0.000000 0.000000 0.000000
				CHANNELS 3 Zrotation Yrotation Xrotation
				End Site
				{
					OFFSET 0.000000 0.000000 0.000000
				}
			}
		}
	}
}
MOTION
Frames: 4
Frame Time: 0.016667
-0.084328 88.612976 3.260850 -0.386987 -1.088105 -11.133458 0.989881 0.030401 7.437615 -0.567946 0.179043 2.673132 -0.001405 -0.653743 5.821373 -1.094374 0.104725 5.023506 1.634968 -0.043545 5.958254 0.095547 0.300073 -2.727556 -0.166598 -0.573824 -20.062912 0.000000 0.000000 0.000000 93.338303 -0.301456 10.188600 65.145149 -25.926407 6.869421 0.134007 16.960320 25.988766 3.704273 12.976002 -5.898595 19.846884 30.071487 61.982346 -8.585352 -12.238421 -20.708773 -6.381225 -8.063239 -14.323338 0.000000 0.000000 0.000000 11.819587 -10.975314 2.099876 8.963711 0.334866 1.433905 8.744838 -0.099117 1.386447 0.000000 0.000000 0.000000 11.739068 -5.451502 0.701781 7.963657 0.437742 0.503328 8.423051 -0.053243 0.450689 0.000000 0.000000 0.000000 14.033265 2.084998 0.480871 9.539197 -0.895434 -0.776575 9.270699 0.052061 -0.544403 0.000000 0.000000 0.000000 13.885201 10.534144 -0.930191 10.146168 -1.679462 -2.199948 9.812567 0.231522 -1.725529 0.000000 0.000000 0.000000 0.000000 0.000000 0.000000 0.000000 0.000000 0.000000 -90.857887 0.418765 5.803132 -70.221443 15.239530 -5.983340 -0.644620 -12.579134 50.924572 -2.544228 -13.883757 -16.452431 -20.022686 -30.054070 61.816528 8.729928 12.489289 -21.076071 6.435156 8.339362 -14.766098 0.000000 0.000000 0.000000 -17.402859 -5.746915 1.479495 -11.555100 0.342119 -1.156704 -11.531338 -0.129903 -1.082133 0.000000 0.000000 0.000000 -17.524805 -0.529039 -0.193248 -11.503438 0.419660 -0.516624 -11.820201 -0.055610 -0.416507 0.000000 0.000000 0.000000 -22.035404 7.988485 -1.201191 -14.545792 -0.882396 0.819304 -14.423504 0.075505 0.642727 0.000000 0.000000 0.000000 -25.335182 16.696457 -3.186082 -16.473721 -1.514995 2.665010 -15.913608 0.424821 2.305816 0.000000 0.000000 0.000000 0.000000 0.000000 0.000000 0.000000 0.000000 0.000000 -0.275165 -9.408674 15.702013 -0.069905 -0.745857 4.440105 -3.548728 -6.766926 17.143456 -0.869689 0.859429 -18.355167 0.000000 0.000000 0.000000 0.000000 0.000000 0.000000 0.000000 0.000000 0.000000 -1.394124 -5.747862 10.464746 0.037159 0.262316 10.453995 3.949130 -1.554316 15.299864 0.179970 -0.379164 -20.189114 0.000000 0.000000 0.000000 0.000000 0.000000 0.000000 0.000000 0.000000 0.000000 
-0.081426 88.612968 3.296796 -0.390056 -1.154848 -11.118334 0.976829 0.027697 7.445288 -0.557514 0.166784 2.645863 -0.014213 -0.670810 5.863795 -1.097557 0.086839 5.002995 1.548807 -0.002882 5.932333 0.089931 0.315782 -2.739705 -0.185589 -0.574761 -20.042467 0.000000 0.000000 0.000000 93.355812 -0.298408 10.187278 65.019676 -26.315222 7.025385 0.116986 16.746107 25.872215 3.767610 12.954601 -5.791883 19.891855 30.060091 61.943008 -8.623408 -12.327597 -20.832201 -6.415921 -8.120593 -14.410303 0.000000 0.000000 0.000000 12.230223 -11.035604 1.906029 9.195992 0.331940 1.445656 8.983489 -0.101489 1.398240 0.000000 0.000000 0.000000 12.091374 -5.509233 0.585568 8.180780 0.435901 0.508736 8.634624 -0.054684 0.455521 0.000000 0.000000 0.000000 14.325324 2.027461 0.464020 9.739319 -0.892790 -0.785371 9.470984 0.053782 -0.551445 0.000000 0.000000 0.000000 14.125881 10.477473 -0.844214 10.305787 -1.672988 -2.229853 9.982152 0.235833 -1.753370 0.000000 0.000000 0.000000 0.000000 0.000000 0.000000 0.000000 0.000000 0.000000 -90.857872 0.424866 5.839047 -70.166283 15.617762 -6.055135 -0.649570 -12.331167 50.438274 -2.629915 -13.581179 -16.695992 -20.023630 -30.053339 61.815163 8.729375 12.493554 -21.080954 6.433614 8.341155 -14.768526 0.000000 0.000000 0.000000 -17.384565 -5.744910 1.333609 -11.575524 0.340854 -1.166587 -11.552463 -0.130405 -1.090677 0.000000 0.000000 0.000000 -17.495117 -0.531144 -0.298004 -11.511016 0.418818 -0.520247 -11.835317 -0.056396 -0.420153 0.000000 0.000000 0.000000 -21.967474 7.978100 -1.235822 -14.541740 -0.880625 0.824855 -14.412875 0.076555 0.647205 0.000000 0.000000 0.000000 -25.236317 16.690584 -3.155825 -16.447245 -1.510866 2.680471 -15.883457 0.426906 2.317110 0.000000 0.000000 0.000000 0.000000 0.000000 0.000000 0.000000 0.000000 0.000000 -0.281632 -9.377042 15.715494 -0.069639 -0.746964 4.416651 -3.547462 -6.691970 17.125553 -0.869527 0.865847 -18.350723 0.000000 0.000000 0.000000 0.000000 0.000000 0.000000 0.000000 0.000000 0.000000 -1.386897 -5.704946 10.475342 0.037331 0.261801 10.474643 3.955283 -1.519210 15.279531 0.176286 -0.375317 -20.199429 0.000000 0.000000 0.000000 0.000000 0.000000 0.000000 0.000000 0.000000 0.000000 
-0.077565 88.612907 3.332669 -0.394309 -1.229721 -11.106111 0.965898 0.024407 7.455533 -0.545881 0.154297 2.616411 -0.027308 -0.686010 5.910257 -1.099074 0.069497 4.984189 1.468450 0.039133 5.903717 0.086539 0.336164 -2.752233 -0.204646 -0.576169 -20.023720 0.000000 0.000000 0.000000 93.369690 -0.296131 10.188217 64.888626 -26.694563 7.173630 0.100677 16.517439 25.760427 3.824922 12.917717 -5.692909 19.927202 30.051416 61.912601 -8.653181 -12.397428 -20.928558 -6.443345 -8.165327 -14.477329 0.000000 0.000000 0.000000 12.577467 -11.084721 1.747037 9.396677 0.329436 1.455014 9.189644 -0.103415 1.407806 0.000000 0.000000 0.000000 12.384842 -5.556416 0.491128 8.365668 0.434231 0.513194 8.814849 -0.055971 0.459511 0.000000 0.000000 0.000000 14.562074 1.979935 0.452546 9.906770 -0.890421 -0.792559 9.639030 0.055269 -0.557296 0.000000 0.000000 0.000000 14.316287 10.429698 -0.766710 10.435911 -1.667264 -2.254880 10.121783 0.239312 -1.777213 0.000000 0.000000 0.000000 0.000000 0.000000 0.000000 0.000000 0.000000 0.000000 -90.856728 0.432046 5.871262 -70.119980 15.957401 -6.121008 -0.656462 -12.075836 49.941566 -2.720075 -13.330544 -16.928055 -20.021799 -30.052954 61.815941 8.727775 12.491584 -21.078527 6.430882 8.339251 -14.765316 0.000000 0.000000 0.000000 -17.344976 -5.745074 1.202126 -11.570367 0.340369 -1.174165 -11.547480 -0.130115 -1.097278 0.000000 0.000000 0.000000 -17.445393 -0.536404 -0.394867 -11.492293 0.418353 -0.522899 -11.824639 -0.056831 -0.423003 0.000000 0.000000 0.000000 -21.881361 7.963679 -1.272495 -14.510921 -0.879452 0.829176 -14.375882 0.077208 0.650696 0.000000 0.000000 0.000000 -25.121323 16.681364 -3.136045 -16.397135 -1.508321 2.692828 -15.829126 0.427726 2.325871 0.000000 0.000000 0.000000 0.000000 0.000000 0.000000 0.000000 0.000000 0.000000 -0.283413 -9.350009 15.733068 -0.069313 -0.748061 4.393226 -3.544727 -6.620227 17.102177 -0.868841 0.872702 -18.345440 0.000000 0.000000 0.000000 0.000000 0.000000 0.000000 0.000000 0.000000 0.000000 -1.374424 -5.663312 10.487413 0.037574 0.261495 10.495275 3.957954 -1.484913 15.259890 0.173363 -0.371985 -20.210732 0.000000 0.000000 0.000000 0.000000 0.000000 0.000000 0.000000 0.000000 0.000000 
-0.072945 88.612709 3.368390 -0.399215 -1.311382 -11.096744 0.956990 0.020773 7.468405 -0.533558 0.141899 2.584718 -0.040363 -0.698979 5.961006 -1.099694 0.052939 4.967384 1.392910 0.081983 5.871830 0.084685 0.360388 -2.765179 -0.223424 -0.577723 -20.007334 0.000000 0.000000 0.000000 93.380135 -0.294707 10.191307 64.753433 -27.061907 7.313989 0.085089 16.276789 25.651199 3.884845 12.858137 -5.600827 19.954071 30.045034 61.889843 -8.675897 -12.450270 -21.001320 -6.464499 -8.198904 -14.527048 0.000000 0.000000 0.000000 12.869298 -11.123936 1.620142 9.567142 0.327233 1.462655 9.364625 -0.105043 1.415748 0.000000 0.000000 0.000000 12.627655 -5.594439 0.415743 8.520412 0.432686 0.516930 8.965319 -0.057145 0.462840 0.000000 0.000000 0.000000 14.750858 1.941180 0.443851 10.044163 -0.888230 -0.798370 9.777358 0.056599 -0.562171 0.000000 0.000000 0.000000 14.462689 10.390041 -0.700054 10.539766 -1.662000 -2.275667 10.234464 0.242215 -1.797477 0.000000 0.000000 0.000000 0.000000 0.000000 0.000000 0.000000 0.000000 0.000000 -90.855232 0.440217 5.900382 -70.079475 16.258463 -6.179387 -0.664000 -11.817859 49.439518 -2.828741 -13.125170 -17.152439 -20.018415 -30.052769 61.817841 8.725667 12.486013 -21.071955 6.427605 8.335266 -14.758965 0.000000 0.000000 0.000000 -17.294022 -5.746343 1.082317 -11.549185 0.340609 -1.179317 -11.525898 -0.129124 -1.101807 0.000000 0.000000 0.000000 -17.384441 -0.543652 -0.486229 -11.456754 0.418238 -0.524540 -11.797518 -0.056933 -0.424992 0.000000 0.000000 0.000000 -21.783792 7.946748 -1.313839 -14.462283 -0.878826 0.832096 -14.321463 0.077498 0.653112 0.000000 0.000000 0.000000 -24.995300 16.670183 -3.129011 -16.330706 -1.507182 2.701499 -15.758281 0.427433 2.331678 0.000000 0.000000 0.000000 0.000000 0.000000 0.000000 0.000000 0.000000 0.000000 -0.281774 -9.326300 15.755389 -0.068954 -0.749227 4.370149 -3.540422 -6.552865 17.073742 -0.867826 0.879850 -18.339521 0.000000 0.000000 0.000000 0.000000 0.000000 0.000000 0.000000 0.000000 0.000000 -1.358314 -5.623535 10.501387 0.037838 0.261195 10.515775 3.957762 -1.451929 15.240677 0.171136 -0.369162 -20.221939 0.000000 0.000000 0.000000 0.000000 0.000000 0.000000 0.000000 0.000000 0.000000 
